<?xml version="1.0" ?><svg data-name="Layer 1" id="Layer_1" viewBox="0 0 512 512" xmlns="http://www.w3.org/2000/svg"><title/><path d="M247.22,157.68h17.55a25.88,25.88,0,0,0,25.85-25.85V100.89A25.87,25.87,0,0,0,264.77,75H247.22a25.87,25.87,0,0,0-25.84,25.85v30.94A25.88,25.88,0,0,0,247.22,157.68Zm-14.33-56.79a14.35,14.35,0,0,1,14.33-14.34h17.55a14.35,14.35,0,0,1,14.34,14.34v30.94a14.35,14.35,0,0,1-14.34,14.34H247.22a14.35,14.35,0,0,1-14.33-14.34Z"/><path d="M467.34,416.69l-33.81-13.55a21.58,21.58,0,0,0,8.38-17V353.68A21.71,21.71,0,0,0,420.22,332h-5.36V301.06a5.77,5.77,0,0,0-3.62-5.34l-22.47-9a17.58,17.58,0,0,0,5.15-12.45V250a17.29,17.29,0,0,0-1.24-6.15h13.11a5.76,5.76,0,0,0,5.76-5.75V45.74A5.76,5.76,0,0,0,405.79,40H106.21a5.76,5.76,0,0,0-5.76,5.76V238.13a5.76,5.76,0,0,0,5.76,5.75h12.38a17.51,17.51,0,0,0-1.24,6.15v24.23a17.56,17.56,0,0,0,5,12.21l-23.07,9.25a5.76,5.76,0,0,0-3.61,5.34V332H91.78a21.71,21.71,0,0,0-21.69,21.69v32.46a21.58,21.58,0,0,0,8.38,17L44.66,416.69A5.77,5.77,0,0,0,41,422v44.22a5.76,5.76,0,0,0,11.52,0V425.94l42.92-17.21a12.23,12.23,0,0,1,4.6-.9h.06a12.52,12.52,0,0,1,4.61.9l42.93,17.21v40.32c0,.18.09.34.1.52a6.12,6.12,0,0,0,.23,1.13,6.69,6.69,0,0,0,.39,1,5.62,5.62,0,0,0,.62.91,6.05,6.05,0,0,0,.74.78,6.57,6.57,0,0,0,2,1.07c.17.05.3.17.48.21a5.69,5.69,0,0,0,1.22.13h0a5.57,5.57,0,0,0,3.24-1.13c.15-.11.3-.18.44-.3a5.55,5.55,0,0,0,1.75-2.81c0-.11.15-.16.17-.27l40.24-183.35H312.71L353,467.5c0,.11.14.16.17.27a5.55,5.55,0,0,0,1.75,2.81c.14.12.29.19.44.3a5.57,5.57,0,0,0,3.24,1.13h0a5.69,5.69,0,0,0,1.22-.13c.18,0,.31-.16.48-.21a5.6,5.6,0,0,0,1.06-.47,6.13,6.13,0,0,0,.9-.6,6.05,6.05,0,0,0,.74-.78,5.62,5.62,0,0,0,.62-.91,6.69,6.69,0,0,0,.39-1,6.12,6.12,0,0,0,.23-1.13c0-.18.1-.34.1-.52V425.94l42.92-17.21a12.41,12.41,0,0,1,9.28,0l42.92,17.21v40.32a5.76,5.76,0,0,0,11.52,0V422A5.77,5.77,0,0,0,467.34,416.69Zm-36.94-63v32.46a10.2,10.2,0,0,1-10.18,10.18h-18.7a10.19,10.19,0,0,1-10.17-10.18V353.68a10.18,10.18,0,0,1,10.17-10.18h18.7A10.19,10.19,0,0,1,430.4,353.68ZM382.41,250v24.23a6.14,6.14,0,0,1-6.13,6.14h-14a6.14,6.14,0,0,1-6.14-6.14V250a6.15,6.15,0,0,1,6.14-6.15h14A6.15,6.15,0,0,1,382.41,250ZM112,51.49H400V232.37H331.41v-39.6a5.76,5.76,0,0,0-2.9-5l-41.07-23.49a5.76,5.76,0,0,0-7.71,1.9L256,203.41l-23.73-37.23a5.76,5.76,0,0,0-7.71-1.9l-41.08,23.49a5.76,5.76,0,0,0-2.9,5v39.6H112Zm80.13,180.88V196.11L225.51,177l25.63,40.22a5.76,5.76,0,0,0,9.71,0L286.49,177l33.41,19.1v36.27ZM149,243.88A6.16,6.16,0,0,1,155.1,250v24.23A6.15,6.15,0,0,1,149,280.4H135a6.14,6.14,0,0,1-6.14-6.14V250a6.15,6.15,0,0,1,6.14-6.15ZM81.6,353.68A10.19,10.19,0,0,1,91.78,343.5h18.69a10.19,10.19,0,0,1,10.18,10.18v32.46a10.2,10.2,0,0,1-10.18,10.18H91.78A10.2,10.2,0,0,1,81.6,386.14Zm41.52,50a21.65,21.65,0,0,0,9-17.55V353.68A21.71,21.71,0,0,0,110.47,332h-3.3V305l31.12-12.48a7.94,7.94,0,0,1,5.85,0L175.27,305v34.94L158,418.64a5.77,5.77,0,0,0-2.41-1.95Zm194.22-131H194.66a5.74,5.74,0,0,0-5.62,4.52L184.69,297a5.45,5.45,0,0,0-1.52-1.23l-22-8.81a17.57,17.57,0,0,0,5.43-12.65V250a17.3,17.3,0,0,0-1.25-6.15H345.92a17.3,17.3,0,0,0-1.25,6.15v24.23a17.61,17.61,0,0,0,5.16,12.45l-22.48,9c-.11,0-.16.17-.27.22L323,277.16A5.74,5.74,0,0,0,317.34,272.64Zm39.08,144.05a5.77,5.77,0,0,0-2.41,1.95l-18.76-85.48V305l31.13-12.48a7.91,7.91,0,0,1,5.84,0L403.34,305v27h-1.82a21.71,21.71,0,0,0-21.68,21.69v32.46a21.63,21.63,0,0,0,9,17.55Z"/></svg>